<svg xmlns="http://www.w3.org/2000/svg" viewBox="0 0 560 560" style="enable-background:new 0 0 560 560" xml:space="preserve"><path d="M210.56 369.6V190.4c0-13.44 13.44-22.4 24.64-15.68l154.56 89.6c11.2 6.72 11.2 22.4 0 29.12l-154.56 89.6c-11.2 6.72-24.64-2.24-24.64-15.68v2.24z" style="fill-rule:evenodd;clip-rule:evenodd;fill:#fff"/><path d="M280 0c154.56 0 280 125.44 280 280S434.56 560 280 560 0 434.56 0 280 125.44 0 280 0zm0 49.28C152.32 49.28 49.28 152.32 49.28 280S152.32 510.72 280 510.72c129.92 0 230.72-100.8 230.72-230.72 0-127.68-103.04-230.72-230.72-230.72z" style="fill:#fff"/></svg>